<mxfile host="Electron" agent="Mozilla/5.0 (Windows NT 10.0; Win64; x64) AppleWebKit/537.36 (KHTML, like Gecko) draw.io/21.7.5 Chrome/114.0.5735.289 Electron/25.8.1 Safari/537.36" modified="2025-06-12T08:18:04.449Z" etag="FCr_bLU3H4f3IOeh_Qdl" version="21.7.5" type="device">
  <diagram name="Seite-1" id="WwQ2_Di6zZpVHp0ySDpr">
    <mxGraphModel dx="3190" dy="2684" grid="1" gridSize="10" guides="1" tooltips="1" connect="1" arrows="1" fold="1" page="1" pageScale="1" pageWidth="827" pageHeight="1169" math="0" shadow="0">
      <root>
        <mxCell id="0" />
        <mxCell id="1" parent="0" />
        <mxCell id="SL9sxIamrcD63tzus7ki-1" value="" style="whiteSpace=wrap;html=1;aspect=fixed;fillColor=#CCFFFF;" parent="1" vertex="1">
          <mxGeometry x="65" y="-510" width="1227" height="1227" as="geometry" />
        </mxCell>
        <mxCell id="SL9sxIamrcD63tzus7ki-3" value="" style="whiteSpace=wrap;html=1;aspect=fixed;fillColor=#99FFFF;" parent="1" vertex="1">
          <mxGeometry x="102.5" y="-460" width="1145" height="1145" as="geometry" />
        </mxCell>
        <mxCell id="SL9sxIamrcD63tzus7ki-28" value="" style="whiteSpace=wrap;html=1;aspect=fixed;fillColor=#33FFFF;" parent="1" vertex="1">
          <mxGeometry x="138.5" y="-410" width="1080" height="1080" as="geometry" />
        </mxCell>
        <mxCell id="SL9sxIamrcD63tzus7ki-2" value="VPC (vpc-dh-M158)" style="text;html=1;align=center;verticalAlign=middle;resizable=0;points=[];autosize=1;strokeColor=none;fillColor=none;" parent="1" vertex="1">
          <mxGeometry x="610" y="-500" width="130" height="30" as="geometry" />
        </mxCell>
        <mxCell id="SL9sxIamrcD63tzus7ki-4" value="Subnetz (subnetz-dh-m158)" style="text;html=1;align=center;verticalAlign=middle;resizable=0;points=[];autosize=1;strokeColor=none;fillColor=none;" parent="1" vertex="1">
          <mxGeometry x="588.12" y="-440" width="170" height="30" as="geometry" />
        </mxCell>
        <mxCell id="SL9sxIamrcD63tzus7ki-5" value="" style="whiteSpace=wrap;html=1;aspect=fixed;fillColor=#00CCCC;" parent="1" vertex="1">
          <mxGeometry x="198" y="-228" width="430" height="430" as="geometry" />
        </mxCell>
        <mxCell id="SL9sxIamrcD63tzus7ki-6" value="EC2 Instanz&amp;nbsp;172.20.0.10&lt;br&gt;Hostname: webserver" style="text;html=1;align=center;verticalAlign=middle;resizable=0;points=[];autosize=1;strokeColor=none;fillColor=none;" parent="1" vertex="1">
          <mxGeometry x="342.12" y="-228" width="160" height="40" as="geometry" />
        </mxCell>
        <mxCell id="6lEmwNO8UmHxtdkL_1Gv-19" style="edgeStyle=orthogonalEdgeStyle;rounded=0;orthogonalLoop=1;jettySize=auto;html=1;exitX=0.5;exitY=1;exitDx=0;exitDy=0;entryX=0.5;entryY=0;entryDx=0;entryDy=0;" parent="1" source="SL9sxIamrcD63tzus7ki-7" target="SL9sxIamrcD63tzus7ki-10" edge="1">
          <mxGeometry relative="1" as="geometry" />
        </mxCell>
        <mxCell id="6lEmwNO8UmHxtdkL_1Gv-20" style="edgeStyle=orthogonalEdgeStyle;rounded=0;orthogonalLoop=1;jettySize=auto;html=1;exitX=0.5;exitY=1;exitDx=0;exitDy=0;entryX=0.5;entryY=0;entryDx=0;entryDy=0;" parent="1" source="SL9sxIamrcD63tzus7ki-7" target="SL9sxIamrcD63tzus7ki-8" edge="1">
          <mxGeometry relative="1" as="geometry" />
        </mxCell>
        <mxCell id="SL9sxIamrcD63tzus7ki-7" value="Docker" style="rounded=0;whiteSpace=wrap;html=1;fillColor=#FFFFFF;strokeColor=#000000;shadow=1;" parent="1" vertex="1">
          <mxGeometry x="290" y="-170" width="120" height="40" as="geometry" />
        </mxCell>
        <mxCell id="SL9sxIamrcD63tzus7ki-8" value="Apache&lt;br&gt;Port 80/443" style="rounded=0;whiteSpace=wrap;html=1;fillColor=#FFFFFF;strokeColor=#000000;shadow=1;" parent="1" vertex="1">
          <mxGeometry x="224.62" y="-66" width="95" height="40" as="geometry" />
        </mxCell>
        <mxCell id="SL9sxIamrcD63tzus7ki-10" value="PHP" style="rounded=0;whiteSpace=wrap;html=1;fillColor=#FFFFFF;strokeColor=#000000;shadow=1;" parent="1" vertex="1">
          <mxGeometry x="358" y="-66" width="111.25" height="40" as="geometry" />
        </mxCell>
        <mxCell id="SL9sxIamrcD63tzus7ki-14" value="WordPress" style="rounded=0;whiteSpace=wrap;html=1;fillColor=#FFFFFF;strokeColor=#000000;shadow=1;" parent="1" vertex="1">
          <mxGeometry x="217.12" y="97" width="110" height="40" as="geometry" />
        </mxCell>
        <mxCell id="SL9sxIamrcD63tzus7ki-22" value="PHPMyAdmin&lt;br&gt;Port 8080" style="rounded=0;whiteSpace=wrap;html=1;strokeColor=#000000;shadow=1;" parent="1" vertex="1">
          <mxGeometry x="344.25" y="97" width="125" height="40" as="geometry" />
        </mxCell>
        <mxCell id="SL9sxIamrcD63tzus7ki-25" value="Browser&lt;br&gt;dh.m158.local" style="rounded=0;whiteSpace=wrap;html=1;" parent="1" vertex="1">
          <mxGeometry x="212.12" y="-624" width="120" height="40" as="geometry" />
        </mxCell>
        <mxCell id="SL9sxIamrcD63tzus7ki-26" value="" style="edgeStyle=orthogonalEdgeStyle;rounded=0;orthogonalLoop=1;jettySize=auto;html=1;entryX=0.5;entryY=0;entryDx=0;entryDy=0;" parent="1" source="SL9sxIamrcD63tzus7ki-25" target="SL9sxIamrcD63tzus7ki-8" edge="1">
          <mxGeometry relative="1" as="geometry" />
        </mxCell>
        <mxCell id="SL9sxIamrcD63tzus7ki-30" value="SicherheitsGruppe&amp;nbsp; (dh-security-group)" style="text;html=1;align=center;verticalAlign=middle;resizable=0;points=[];autosize=1;strokeColor=none;fillColor=none;" parent="1" vertex="1">
          <mxGeometry x="563.5" y="-390" width="230" height="30" as="geometry" />
        </mxCell>
        <mxCell id="i-gh4jPv8BiDK68-th3S-1" value="" style="shape=image;html=1;verticalAlign=top;verticalLabelPosition=bottom;labelBackgroundColor=#ffffff;imageAspect=0;aspect=fixed;image=https://cdn1.iconfinder.com/data/icons/operating-system-flat-1/30/ubuntu-128.png" parent="1" vertex="1">
          <mxGeometry x="309.62" y="-222.06" width="28.12" height="28.12" as="geometry" />
        </mxCell>
        <mxCell id="6lEmwNO8UmHxtdkL_1Gv-2" value="" style="shape=flexArrow;endArrow=classic;html=1;rounded=0;fillColor=#000000;" parent="1" edge="1">
          <mxGeometry width="50" height="50" relative="1" as="geometry">
            <mxPoint x="400" as="sourcePoint" />
            <mxPoint x="400.09473684210525" y="75" as="targetPoint" />
            <Array as="points" />
          </mxGeometry>
        </mxCell>
        <mxCell id="6lEmwNO8UmHxtdkL_1Gv-3" value="" style="shape=flexArrow;endArrow=classic;html=1;rounded=0;entryX=0.5;entryY=0;entryDx=0;entryDy=0;exitX=0.244;exitY=0.581;exitDx=0;exitDy=0;exitPerimeter=0;fillColor=#000000;" parent="1" edge="1">
          <mxGeometry width="50" height="50" relative="1" as="geometry">
            <mxPoint x="289.99999999999983" y="1.545430450278218e-13" as="sourcePoint" />
            <mxPoint x="290.08" y="75.17" as="targetPoint" />
          </mxGeometry>
        </mxCell>
        <mxCell id="6lEmwNO8UmHxtdkL_1Gv-5" value="" style="whiteSpace=wrap;html=1;aspect=fixed;fillColor=#00CCCC;" parent="1" vertex="1">
          <mxGeometry x="750" y="-240" width="430" height="430" as="geometry" />
        </mxCell>
        <mxCell id="6lEmwNO8UmHxtdkL_1Gv-6" value="EC2 Instanz&amp;nbsp; 172.20.0.11&lt;br&gt;Hostname: DNS-Server" style="text;html=1;strokeColor=none;fillColor=none;align=center;verticalAlign=middle;whiteSpace=wrap;rounded=0;" parent="1" vertex="1">
          <mxGeometry x="901" y="-223.94" width="140" height="30" as="geometry" />
        </mxCell>
        <mxCell id="6lEmwNO8UmHxtdkL_1Gv-7" value="" style="whiteSpace=wrap;html=1;aspect=fixed;fillColor=#00CCCC;" parent="1" vertex="1">
          <mxGeometry x="471" y="220" width="430" height="430" as="geometry" />
        </mxCell>
        <mxCell id="6lEmwNO8UmHxtdkL_1Gv-8" value="EC2 Instanz&amp;nbsp; 172.20.0.12&lt;br&gt;Hostname: dantebank-server&lt;br&gt;" style="text;html=1;strokeColor=none;fillColor=none;align=center;verticalAlign=middle;whiteSpace=wrap;rounded=0;" parent="1" vertex="1">
          <mxGeometry x="468.12" y="230" width="410" height="70" as="geometry" />
        </mxCell>
        <mxCell id="6lEmwNO8UmHxtdkL_1Gv-9" value="Maria DB&lt;br&gt;Port 3306" style="rounded=0;whiteSpace=wrap;html=1;fillColor=#FFFFFF;strokeColor=#000000;shadow=1;" parent="1" vertex="1">
          <mxGeometry x="628" y="330" width="120" height="40" as="geometry" />
        </mxCell>
        <mxCell id="6lEmwNO8UmHxtdkL_1Gv-10" value="" style="endArrow=classic;startArrow=classic;html=1;rounded=0;entryX=0.25;entryY=1;entryDx=0;entryDy=0;exitX=0;exitY=0.5;exitDx=0;exitDy=0;" parent="1" source="6lEmwNO8UmHxtdkL_1Gv-7" target="SL9sxIamrcD63tzus7ki-5" edge="1">
          <mxGeometry width="50" height="50" relative="1" as="geometry">
            <mxPoint x="450" y="330" as="sourcePoint" />
            <mxPoint x="500" y="280" as="targetPoint" />
            <Array as="points">
              <mxPoint x="307" y="435" />
            </Array>
          </mxGeometry>
        </mxCell>
        <mxCell id="6lEmwNO8UmHxtdkL_1Gv-11" value="" style="endArrow=classic;startArrow=classic;html=1;rounded=0;entryX=0.5;entryY=1;entryDx=0;entryDy=0;exitX=1;exitY=0.5;exitDx=0;exitDy=0;" parent="1" source="6lEmwNO8UmHxtdkL_1Gv-7" target="6lEmwNO8UmHxtdkL_1Gv-5" edge="1">
          <mxGeometry width="50" height="50" relative="1" as="geometry">
            <mxPoint x="450" y="330" as="sourcePoint" />
            <mxPoint x="500" y="280" as="targetPoint" />
            <Array as="points">
              <mxPoint x="965" y="435" />
            </Array>
          </mxGeometry>
        </mxCell>
        <mxCell id="6lEmwNO8UmHxtdkL_1Gv-12" value="" style="endArrow=classic;startArrow=classic;html=1;rounded=0;entryX=0.5;entryY=0;entryDx=0;entryDy=0;exitX=0.5;exitY=0;exitDx=0;exitDy=0;" parent="1" edge="1">
          <mxGeometry width="50" height="50" relative="1" as="geometry">
            <mxPoint x="963" y="-240.00000000000023" as="sourcePoint" />
            <mxPoint x="412" y="-240.00000000000023" as="targetPoint" />
            <Array as="points">
              <mxPoint x="963" y="-300" />
              <mxPoint x="412" y="-300" />
              <mxPoint x="412" y="-270" />
            </Array>
          </mxGeometry>
        </mxCell>
        <mxCell id="6lEmwNO8UmHxtdkL_1Gv-14" value="FTP Server" style="rounded=0;whiteSpace=wrap;html=1;strokeColor=#000000;shadow=1;" parent="1" vertex="1">
          <mxGeometry x="469.25" y="-170" width="125" height="40" as="geometry" />
        </mxCell>
        <mxCell id="6lEmwNO8UmHxtdkL_1Gv-21" value="Bind9" style="rounded=0;whiteSpace=wrap;html=1;fillColor=#FFFFFF;strokeColor=#000000;shadow=1;" parent="1" vertex="1">
          <mxGeometry x="901" y="-150" width="120" height="40" as="geometry" />
        </mxCell>
        <mxCell id="6lEmwNO8UmHxtdkL_1Gv-23" value="Datenbanknamen: wp-dh-projekt&lt;br style=&quot;border-color: var(--border-color);&quot;&gt;Benutzer: wp-user-dh&lt;br style=&quot;border-color: var(--border-color);&quot;&gt;Passwort: TBZ12345!" style="rounded=0;whiteSpace=wrap;html=1;" parent="1" vertex="1">
          <mxGeometry x="500" y="510" width="260" height="100" as="geometry" />
        </mxCell>
      </root>
    </mxGraphModel>
  </diagram>
</mxfile>
